PathFileType	3	(X/Y/Z)	results
DataRate	CameraRate	NumFrames	NumMarkers	Units	OrigDataRate	OrigDataStartFrame	OrigNumFrames
30.0	30.0	4	85	mm	30.0	87	173
Frame#	Time	head			nose			neck			shoulder_r			elbow_r			wrist_r			shoulder_l			elbow_l			wrist_l			hip_r			knee_r			ankle_r			hip_l			knee_l			ankle_l			heel_r			heel_l			mtoe_r			ltoe_r			mtoe_l			ltoe_l			asis_l			asis_r			psi_r			psi_l			mhnd_r			lhnd_r			mhnd_l			lhnd_l			l_lat_knee			r_med_wrist			l_lat_ankle			r_med_ankle			r_lat_knee			xiphoid			l_med_ankle			r_med_knee			l_med_elbow			navel			r_lat_elbow			r_lat_wrist			l_med_wrist			l_lat_elbow			l_med_knee			r_med_elbow			r_lat_ankle			l_lat_wrist			chin			T10			r_eye			l_eye			l_ear			r_ear			spinal_cord_8			spinal_cord_12			spinal_cord_27			spinal_cord_33			up_arm_r_0			up_arm_r_5			up_arm_l_0			up_arm_l_5			front_torso_11			front_torso_7			front_torso_4			front_torso_1			front_torso_10			thigh_r_2			thigh_r_3			thigh_l_1			thigh_l_5			shank_l_0			shank_l_4			shank_r_1			shank_r_2			foot_r_1			foot_r_3			foot_r_5			foot_r_6			foot_r_7			foot_l_1			foot_l_7			foot_l_0			foot_l_4			foot_l_5			foot_l_6			
		X1	Y1	Z1	X2	Y2	Z2	X3	Y3	Z3	X4	Y4	Z4	X5	Y5	Z5	X6	Y6	Z6	X7	Y7	Z7	X8	Y8	Z8	X9	Y9	Z9	X10	Y10	Z10	X11	Y11	Z11	X12	Y12	Z12	X13	Y13	Z13	X14	Y14	Z14	X15	Y15	Z15	X16	Y16	Z16	X17	Y17	Z17	X18	Y18	Z18	X19	Y19	Z19	X20	Y20	Z20	X21	Y21	Z21	X22	Y22	Z22	X23	Y23	Z23	X24	Y24	Z24	X25	Y25	Z25	X26	Y26	Z26	X27	Y27	Z27	X28	Y28	Z28	X29	Y29	Z29	X30	Y30	Z30	X31	Y31	Z31	X32	Y32	Z32	X33	Y33	Z33	X34	Y34	Z34	X35	Y35	Z35	X36	Y36	Z36	X37	Y37	Z37	X38	Y38	Z38	X39	Y39	Z39	X40	Y40	Z40	X41	Y41	Z41	X42	Y42	Z42	X43	Y43	Z43	X44	Y44	Z44	X45	Y45	Z45	X46	Y46	Z46	X47	Y47	Z47	X48	Y48	Z48	X49	Y49	Z49	X50	Y50	Z50	X51	Y51	Z51	X52	Y52	Z52	X53	Y53	Z53	X54	Y54	Z54	X55	Y55	Z55	X56	Y56	Z56	X57	Y57	Z57	X58	Y58	Z58	X59	Y59	Z59	X60	Y60	Z60	X61	Y61	Z61	X62	Y62	Z62	X63	Y63	Z63	X64	Y64	Z64	X65	Y65	Z65	X66	Y66	Z66	X67	Y67	Z67	X68	Y68	Z68	X69	Y69	Z69	X70	Y70	Z70	X71	Y71	Z71	X72	Y72	Z72	X73	Y73	Z73	X74	Y74	Z74	X75	Y75	Z75	X76	Y76	Z76	X77	Y77	Z77	X78	Y78	Z78	X79	Y79	Z79	X80	Y80	Z80	X81	Y81	Z81	X82	Y82	Z82	X83	Y83	Z83	X84	Y84	Z84	X85	Y85	Z85	
87	2.9	-211.50479655561023	1611.3684261223596	-319.5403917980963	-174.99384505885422	1442.4571912779727	-404.4418520326013	-257.2854077905371	1325.3169323401194	-249.18672157439272	-34.41460331013959	1253.6097982868125	-221.27358892181465	42.39985857209094	1018.0246290977417	-124.47647299089662	31.495806307030318	805.1933297373329	-195.9430866919882	-403.8623656271552	1309.2749015000095	-275.765298408776	-485.7686510617054	1049.7041619097217	-275.06304264599885	-494.67185464629927	807.4627160895681	-291.32972273209396	-143.91082824438527	831.3722765425653	-191.73411764811993	-98.17533022876968	463.4797672595883	-273.07233744747623	-63.03381502611262	91.63984119722424	-123.65912738364784	-318.0259650136651	835.5093770565837	-166.60603644397088	-362.29753915603004	460.5122430058663	-256.1807261416623	-380.6826849108446	92.38989379788526	-101.08755002067247	-67.03576053819256	36.67910704828301	-94.10523364638911	-386.8472662513613	28.050828773505124	-61.30459402097696	17.115607552777288	12.890271926671849	-304.8473272033519	56.031102704545034	27.6086241468995	-224.60396251134515	-384.6269494086379	34.668550523080896	-277.940091710302	-457.2352260945318	12.8881298081383	-222.77409576146965	-362.9256368198315	887.451176786441	-212.4874304905622	-107.4894027835043	879.1151061359813	-245.47495950926222	-172.75206381643437	914.9539841169725	-96.79200355211564	-260.47209314027236	916.0019262029074	-90.1330646638295	42.04332789760111	732.7446087955238	-191.29331286360147	22.45386278751483	731.5084236714124	-241.13071807079567	-524.3464170998343	739.4600937516772	-308.9274640391938	-478.8435324605219	720.6429275284498	-288.1633346681776	-410.5067327500401	463.014819057387	-252.87690546376373	49.886249900248465	806.224219492232	-174.48472582148185	-432.3022666919112	87.84533284644253	-78.12761775303434	-92.69164550547147	71.42691938971846	-140.60311884826405	-57.25736884916084	459.2936218162729	-264.51303842178135	-236.0201025737805	1142.2902678218504	-316.2377415732469	-355.4198251219904	71.7626766519342	-116.66603808535348	-137.28821423091762	457.3962933062989	-282.49052225916705	-510.07104950989736	1066.9097571626046	-252.387240654447	-216.70321310190374	922.5310941136017	-295.4325957558067	71.1099585430191	1023.237574902028	-152.8125169747068	7.794732608647776	818.946973679334	-210.83039444334932	-514.9658728365234	820.1964559669814	-315.1723641208187	-462.1708644457726	1054.0843480897163	-308.82439112593727	-318.0324549573658	462.18874431348434	-274.49917122633605	12.873590920352132	1024.4397065745875	-102.27655819882031	-13.731816972892164	81.90602877621312	-108.63932179816496	-466.2864680731433	813.2770418817199	-276.53362386397464	-179.26524379331372	1376.459642541725	-379.24636547544924	-243.33299800608603	1184.7696328851569	-123.3236916269805	-147.33944218083673	1472.472909014708	-398.0798254501282	-206.48096989161968	1468.7190142185266	-417.9557024273548	-281.0626291948044	1471.80799313751	-345.8174069306706	-135.0769060950097	1478.5861977762506	-293.9795677841093	-264.82283619001345	1391.8019718860487	-210.13594464892844	-255.67694955968122	1283.7521020127251	-139.69073692735284	-215.5270409734176	1033.203540482397	-114.32704468257552	-242.08201506116703	1173.1227398238493	-134.72397784564075	-11.13527282253309	1116.2695691592992	-212.89504808738613	39.091614518676565	1131.6331639616824	-139.9826505622042	-407.18283902646624	1252.6867393694097	-302.60674955628866	-501.2192180614473	1134.1612079888264	-259.0598954717966	-171.16477646077487	961.4744975853009	-259.8462512427704	-225.35563176695823	1051.3073061601035	-332.57214837824057	-306.6299943902562	1179.4938969466489	-330.3995626300765	-295.1085766809808	981.8570195741642	-271.41497550109284	-162.1770794929963	1234.1213140859284	-342.68307244048424	-136.14809956361484	631.1874446326253	-238.95141307169501	-41.46770643285294	604.149310432511	-225.90997029018115	-302.5737863632193	564.9973809481057	-230.8775816117013	-428.5797768282956	747.9106051177884	-202.4365333604762	-445.5828044452357	188.36977655117175	-130.22493805396272	-323.10478795318375	308.926752569079	-212.9036862628	-25.609496014385474	315.6453740850304	-193.76103414402152	-118.1063294071115	260.0618306923741	-209.36899570210048	33.036841106559095	12.277524276276234	-278.58079912217386	48.61542563944073	20.681350700920863	-254.57932020693985	-27.381993713342766	26.34447868211002	-233.41405757166362	0.28378943766488307	42.24905113133881	-208.78062288280606	26.829443754728775	36.86999309020147	-184.48891637395252	-429.5165255085545	17.297531830359922	-252.2606122825841	-446.30184489892343	41.263326581144014	-150.20843955361673	-443.42741936589954	15.640387673395844	-244.30529088467927	-412.4039194832012	19.284916736115072	-261.4169453851114	-418.5605646435594	31.928227405951915	-204.84559066976286	-389.6355433904783	45.36182012336683	-176.89293763576612	
88	2.933333333333333	-215.55775340627525	1600.5407795470949	-332.3642670496972	-174.18442070306855	1429.8882948561381	-411.3471107288018	-254.67817774867467	1313.5134527195103	-252.16513078741286	-43.32835691680892	1262.932004128681	-234.5483125819401	23.460319396229465	1020.1166400559387	-148.81333235089792	71.2169411769345	807.5182404114119	-203.9927013380561	-394.02383137002397	1288.0274018323166	-301.5699084643162	-492.89864168544875	1038.0301444879572	-259.01118651830166	-523.2339436069761	797.0072682689985	-255.47104745312672	-146.2771429229015	814.7929342274089	-183.67361995967852	-89.83224736074096	457.4449405007606	-301.16692046227723	-63.25672977680571	97.8288649683523	-122.85768309585296	-320.32175815810666	820.2798717222877	-158.31652346960118	-362.86998994792475	453.67732227348984	-283.63301898387937	-381.79672496799117	96.25492671276353	-105.31593987131401	-68.55632575855087	44.893761567044905	-90.04508034170397	-388.99378489188103	32.86710084549686	-62.9386767600428	17.747799206113356	4.912710666321429	-297.44012610643335	55.997398430511076	17.60013759901593	-216.53252084536518	-383.8369672861408	38.871151990907954	-279.5420504852988	-457.7270502185757	19.291746775934143	-225.26002570261815	-366.0535847227159	864.9735294289113	-210.56698190782248	-110.67636460292393	855.2055484274099	-243.61843867377956	-175.74415671918266	910.1669655980403	-100.80497101788383	-263.4413584655786	911.0886716873213	-93.83399848563886	92.50490749934406	738.5177011055057	-191.0530011942013	88.71196002711213	732.4477470356996	-244.13606310485002	-561.6079229627824	731.1674448451508	-258.1491364484556	-513.2491719765325	709.3448916187361	-251.74955072455003	-410.8151974963302	457.80295994055933	-281.4789237526292	82.13098855284751	812.5125460127628	-178.38659109210863	-433.60590885287314	93.05399208236048	-82.55731008166048	-90.03921767909256	75.49255228214736	-141.80591364225631	-49.179678878264355	453.9739271625307	-291.5153802099731	-237.32790078462395	1130.7391272467305	-321.0078954818415	-356.35192140135024	74.73808315753361	-119.31489973102319	-129.102043741892	451.6030027585275	-309.91430151510826	-507.1183113196972	1058.2739463326743	-230.92523706549818	-221.82264025511975	910.4894110537056	-302.3065545382074	58.071544222895554	1030.2711524222138	-167.6102743243326	50.8104387345794	816.1760949155076	-225.92787313312778	-549.2073155691357	810.4669286428833	-272.40292110895933	-481.0810991904352	1038.9735765272044	-298.70156117881874	-317.2106562341105	457.48813104816327	-297.534688054724	-11.230201802875428	1022.2551417659209	-134.7497458018573	-15.934537876660645	90.87545392865243	-101.33353607926462	-491.26357138846527	800.9414183620478	-250.90170830012255	-176.03557117213393	1364.767010312828	-383.69705881991985	-242.1774253797462	1171.6170900518975	-127.67067756827802	-147.49045522804073	1461.0146244254117	-406.3703138884484	-206.6453839112651	1454.5782036764424	-425.50482229981935	-280.65611015943824	1457.8843270221473	-352.7904404968628	-134.53022761970348	1471.3902679846767	-302.69300558069517	-260.6647231894088	1379.772053304923	-212.46631958440315	-252.86513878502208	1270.9489275691785	-143.057078837553	-217.05016798450345	1019.4987062162821	-120.25383834794299	-241.23806910503947	1160.0518877866268	-139.1835099100576	-12.573197631760676	1126.823327643963	-236.28442150507246	15.602255667054983	1134.5296421218645	-151.30351471606204	-410.51249655497514	1231.2278700794473	-322.44204897966057	-495.25144663112417	1124.0683160210087	-244.18854435715292	-175.27452521253645	948.2834500304278	-266.7874131453387	-228.46066575414824	1039.727935693334	-338.2351486276215	-307.37206620245547	1169.3383039511812	-334.2117762255344	-298.924444619152	971.0059247495495	-277.0701545110573	-162.06432239205844	1221.4530249909517	-347.3037347713414	-132.8692872429347	620.3671986007217	-249.87454595460756	-37.48924060818834	594.8273191236706	-239.1098799359229	-303.48379247198545	555.99667065175	-244.43977192986787	-429.2975327255311	737.6267562194574	-208.03832669835774	-446.65211758335073	189.9779738999244	-141.13380224438438	-323.7211748247345	305.3028911784142	-230.3457474253815	-23.5935539241182	317.8785923197727	-203.46962838391818	-111.9141414658214	258.122722011179	-226.21853446123043	32.79978615272408	3.3080793832705004	-270.7071037856975	48.61465775575621	10.62317527839916	-246.50448423807825	-26.742427043110826	25.653012628631153	-227.7678658378356	1.9261702736255992	39.04607140654879	-202.78998379824677	27.02717095695778	31.4252619320484	-177.57974656628122	-429.5225557474887	22.841144779430028	-254.39989719104094	-446.91716948008906	47.53006638853631	-152.6225088051649	-443.5746499393191	21.598061037288	-246.61917583340366	-412.2456966983695	24.32078457507243	-263.34138627838183	-418.7597750146807	37.27621389984077	-206.8807859153476	-389.82337367733595	49.95742475631254	-178.59049344097755	
89	2.966666666666667	-215.7343200143005	1590.4884533992174	-341.58266743463196	-173.1147993673103	1418.0618729020598	-415.9127662081655	-252.08500517436866	1302.6119283018566	-255.0807062374537	-45.2618517352779	1271.3016365684437	-231.83656991672177	7.82702275168318	1014.6573689510445	-186.165939819471	105.46810347374809	812.2338631829526	-189.9713156383164	-412.89060863331883	1269.2016099502744	-330.5984825125855	-478.92396248574767	1018.9296036490998	-246.3985974219515	-563.6041404701971	792.8870490940435	-218.85189208579948	-147.47075569970426	801.3336950203322	-185.78304922766026	-82.17393686533897	450.73714426055784	-319.3838665430213	-61.344455497904825	100.7034326624488	-122.23748058275041	-321.2724998865613	808.4589545671686	-159.19731410810948	-362.52786833989194	447.2841817813829	-302.961615201541	-383.29571733108435	97.71674957179111	-109.88837097335566	-67.80445201724356	49.51543512509157	-87.03740080630278	-391.60698397344265	34.98250475056676	-66.09158190653292	27.74504950356796	-0.9494930164452644	-287.9930556448533	62.32731427941657	16.260658123815837	-206.27450883458027	-383.0566033283299	40.34802255595536	-282.60431852182364	-458.6246669151078	24.69223933378982	-229.36899287909787	-367.4169131697356	850.4038552488606	-213.3300383762565	-112.36076523903529	838.4543142619751	-248.0993736627669	-176.06809662896885	901.0118934231332	-107.82041334134554	-263.697622323759	902.4543685045525	-100.12439577028978	124.06420262685772	746.7269230967378	-162.68187315057799	152.35453854993293	741.2716041034337	-207.83648136266734	-604.2913626556556	736.6695620239071	-187.24871346243373	-582.231959454334	706.8393594185256	-225.7102405594024	-410.2932354417227	452.49945459229775	-301.02712056787516	98.89025295398712	818.2067815271721	-163.1238105496878	-436.4610246603201	93.82170302875265	-90.63554114905153	-87.14245755485605	77.23532225479495	-141.1836898937293	-41.782195533050654	447.8012718730484	-308.6361023870166	-235.59625612910378	1120.5488752051763	-325.9889445851172	-356.2969741770921	76.45076273796126	-121.07805972537474	-121.40651487103285	444.709016365661	-328.1842920463417	-458.0260656003595	1032.6196996701944	-218.52943433796818	-221.8096119371595	899.9845040365733	-309.82177559331797	45.12342354946884	1030.1254282507684	-181.2574103061951	100.51467280931985	818.3398894454801	-220.14937913081488	-586.0071020304097	814.0942740367884	-205.03784932049834	-506.3054801438658	1028.5734744149172	-275.9471754370901	-316.26925486796364	452.23851692031013	-314.4106857903123	-29.135928981203133	1012.3252372569316	-192.00471350965014	-14.969917380781364	95.21187112149721	-98.35707768878127	-543.1885896988678	790.5786195957473	-244.07762373018622	-175.5842151961352	1353.5804819030468	-386.84756313833395	-241.4445304817011	1159.1547076887011	-132.2128032575359	-146.4753443037794	1449.2651672643447	-411.1296138077216	-205.26559254981623	1442.460150469563	-431.2358558562013	-280.63846119685894	1447.4748763552952	-360.0341524457364	-135.47060421660723	1461.9555728199127	-307.48379845891594	-257.85796090152974	1368.4348131273887	-214.63250103375682	-251.31042326235192	1258.738299148528	-146.48007272351862	-217.46813411368424	1006.7791237188148	-126.45041694398546	-240.51175920048283	1147.720942231613	-143.8567092768499	3.266936564148004	1141.8083304593792	-250.5690574823641	-15.61232925697488	1124.811664827144	-164.3734389768397	-450.6618233839563	1219.1405253339924	-331.56402894937764	-449.3990162107667	1099.3496436924088	-229.40718549142932	-175.22830067523412	937.0113543379881	-273.54616947357954	-227.27220675676713	1029.6870128976334	-344.2447731353521	-305.2694942725486	1159.8136605565387	-339.19275221601913	-298.63905481517463	960.758068596051	-284.37333536198116	-159.50429900884268	1211.0170070082197	-350.6996675615407	-129.32255013814643	610.4419753987298	-260.5807355909581	-33.586983154722304	586.3104301148421	-249.72318011946737	-303.50203973369923	548.1759330887593	-256.57955508618284	-429.25247191068615	728.8856137691245	-215.65901561560088	-448.2344788767144	187.56053857396327	-154.43274903578225	-322.82009160470284	302.8008458594585	-240.23209307593487	-19.466605287538048	316.7596062714452	-212.01114741483943	-106.35981915694254	255.23915384438	-235.5399864082668	41.60376870040522	-1.0370204164731507	-260.5755452514222	56.30461282687896	7.651994062595022	-236.1261322913165	-19.862053259674813	23.20987452337202	-221.55772667978974	7.623607140623906	38.08603786841997	-196.09411885975643	31.610510878747554	31.969709365484107	-169.43118563129457	-429.86171064759213	26.73498613639736	-258.10474373359983	-447.4118809936041	52.45857865907581	-156.61070187729388	-444.0688118551854	26.230499959035555	-250.525165764788	-412.4057005631752	27.307647626348214	-266.798948146752	-419.04872440321094	40.67652745515946	-210.44986612194987	-389.90404116028174	51.898004919872605	-181.7595374098936	
90	3.0	-217.39812260739905	1584.8680371946346	-348.0040225513433	-169.2734319067595	1411.2546805442291	-415.93582161004747	-247.31154541349517	1297.5495499618094	-255.78396770724575	-42.98040958860196	1268.3061934371271	-226.6969993749558	24.08861287640266	1012.5835601978106	-197.06262367068322	121.23325387761973	815.569559721596	-149.3977565435963	-407.3568280850126	1255.141097055166	-328.47950989116674	-492.477662013253	1013.0008294763306	-237.8779864133456	-610.5421890769128	806.1710283519425	-189.84684230651814	-145.50685290972413	794.2604691803705	-191.08707672784058	-75.9093026955074	444.9657145671654	-326.4470402126362	-57.286535067813396	99.05059418587214	-121.94744103488475	-319.25872929660784	802.161956310392	-164.39496420332122	-362.22958425452066	442.21933773604746	-312.06817977262403	-384.98049319207445	96.44018561884243	-112.5057961585099	-64.21146245465704	48.54763041632649	-85.40681714010994	-394.0071556056086	34.07385571540057	-68.21259658642538	37.82588690180086	-1.74432023264183	-283.19127168855675	69.72850332932049	22.80427501035751	-202.26147020137736	-382.3885854828272	38.21466436554522	-284.60928195651906	-459.39774600570007	27.03167233636609	-232.32003293074405	-365.39455198853597	843.2998531785441	-219.15071927017124	-110.40877986223785	830.281302149034	-254.0521539907943	-173.80713649170443	895.2645616409135	-114.73924771616272	-261.42332103081696	897.0047063755527	-106.95340817125265	126.53694357424519	750.0880786130705	-116.75217059543881	174.76343164769747	747.7589750543028	-139.94318996631014	-647.7334504021121	754.9749173616218	-147.2982218675699	-650.1301359383921	727.2950510553957	-192.9471892536683	-409.887439151737	448.09698294333685	-309.9009179170361	101.04464490302004	820.1892007131065	-130.1412930761981	-439.6541993348711	89.91140728070646	-99.06877054825152	-85.10149379873666	76.2413846042675	-138.7199182684713	-35.37945128014547	442.83562580637187	-316.0696895463609	-229.65843138597694	1116.7252890315308	-329.52518167664977	-355.78186853682297	76.52474161553158	-120.06878965788958	-115.23581117595214	438.31468880302776	-334.3521649236195	-459.7828140748691	1018.1984174042705	-220.41765788499154	-216.6084831062206	895.8817497120792	-316.9585301322112	51.66800809157654	1029.5719306386613	-172.46286224336015	132.69362285237358	822.5558660348739	-177.5471262573713	-620.0911762620882	829.1087215711955	-166.93077965433258	-526.0840669059636	1031.9457484356005	-252.9634035815997	-315.8095718338264	447.3675798134027	-322.8824309819358	-4.928676586417116	1008.6356977258159	-220.4763207598796	-9.813523559061219	92.19196688625425	-100.72714212163419	-602.7419886135734	803.603224649079	-221.3273815953427	-172.8787633297464	1347.4040823800042	-385.62350515955404	-239.5157182543274	1151.9332522703462	-135.26494698456133	-143.19498694022948	1442.797170802684	-410.3527482225566	-200.69482538947125	1435.0174351897642	-433.59294623858307	-280.02168388805944	1440.8982693257412	-366.8953849416716	-138.1864987151865	1457.8498918369942	-306.55999138455485	-253.81731431406035	1362.6639265712536	-214.31314159346667	-248.90150428303537	1251.7731440856417	-147.9805094709546	-215.9376755876879	999.4286772294654	-131.68419781753056	-238.35842828683488	1140.70383906421	-147.08622276826492	29.243055283940915	1149.3529141741071	-237.10633103658589	-24.5745464284485	1113.9670100760302	-174.44452841970576	-453.1855795529826	1214.0520236902926	-316.432820490257	-440.57181182200924	1082.8355920031797	-230.34791129795644	-170.73517874812873	932.165185062975	-279.06554835609063	-221.11395367478048	1026.1804714362313	-349.1993018165763	-298.9681553642264	1156.3659135758405	-343.4968338993315	-293.84812584281286	956.3641186841571	-292.064089269478	-152.90196188742678	1207.4495497651774	-351.0342854421145	-125.08536067331403	603.8070698748878	-266.41413175008284	-28.766003958972885	581.4108158232498	-257.11326615420893	-302.6939858947344	542.683800244898	-264.109743362517	-427.4878464374356	723.7958529354255	-222.05540736806387	-449.4331484921377	181.3635984987033	-166.42258352500002	-321.82290628690066	301.7101716882619	-241.27545789626836	-12.265081848112661	311.03046273446216	-219.57397343971041	-102.81809042464093	252.64679150533266	-236.3162110234865	51.36176370291442	0.8939285445399674	-255.7392896542625	64.88384584035553	12.194425056134634	-231.68020284694882	-12.594142200774698	20.699534865824397	-218.24623152578036	13.017792091265552	39.48388973372093	-193.42015812021125	37.241978828567476	37.113367618552644	-166.3782936234522	-430.19881216691846	27.349546957646172	-260.68453651043313	-447.56870797110196	54.3667538763985	-159.4960516228851	-444.50784506043556	27.673831802391792	-253.28908857248112	-412.6281692845653	26.906083267579906	-269.1524328420741	-419.22789640753234	40.81953048464979	-212.93023662834958	-389.8663562286039	50.47436453185502	-183.89313592477248	
